<?xml version="1.0" encoding="UTF-8"?>
<svg width="153px" height="35px" viewBox="0 0 153 35" version="1.1" xmlns="http://www.w3.org/2000/svg" xmlns:xlink="http://www.w3.org/1999/xlink">
    <title>Amusnet_interactive_logo</title>
    <g id="Page-1" stroke="none" stroke-width="1" fill="none" fill-rule="evenodd">
        <g id="Artboard" transform="translate(-300.000000, -92.000000)" fill-rule="nonzero">
            <g id="Amusnet_interactive_logo" transform="translate(300.000000, 92.000000)">
                <g id="logotip" transform="translate(0.000000, 0.000000)">
                    <path d="M10.3121696,17.942962 C10.3121696,13.294181 14.7447283,7.2399546 22.3125113,3.99661901 C35.5020761,-1.73327387 43.0698591,3.56417426 45.0158605,8.53728884 C46.8537506,13.1860698 43.1779703,21.5106312 37.0156327,27.5648576 C41.4481913,24.321522 45.1239717,20.9700753 47.6105289,17.6186285 C50.9619757,13.1860698 52.3674212,8.96973359 51.0700869,5.61828681 C49.2321967,0.753283419 41.7725249,-0.868384378 32.4749628,0.428949859 C23.1774008,1.72628409 16.0420625,4.1047302 10.3121696,7.13184342 C3.82549841,10.375179 0.582162819,14.1590705 0.0416068865,18.5916292 C-0.607060232,24.9701892 6.3120557,33.6190841 21.9881778,34.7001959 C30.2046279,35.2407519 38.2048557,35.4569742 53.448533,31.6730827 C51.6106428,31.7811939 10.2040584,36.9705309 10.3121696,17.942962 Z" id="Path" fill="#A6CE39"></path>
                    <path d="M25.5558469,25.4026339 C30.4208503,25.4026339 34.5290754,21.40252 34.5290754,16.4294054 C34.5290754,11.564402 30.5289615,7.45617698 25.5558469,7.45617698 C20.6908435,7.45617698 16.5826184,11.4562909 16.5826184,16.4294054 C16.6907296,21.40252 20.6908435,25.4026339 25.5558469,25.4026339 L25.5558469,25.4026339 Z" id="Path" fill="#A5CD39"></path>
                </g>
                <g id="Amusnet" transform="translate(58.639508, 4.438009)" fill="#A6CE39">
                    <polygon id="Fill-1" points="0.347664724 25.0370595 1.76324239 25.0370595 1.76324239 16.6506963 0.347664724 16.6506963"></polygon>
                    <polygon id="Fill-2" points="11.5769238 16.6506963 12.9925015 16.6506963 12.9925015 25.0370595 11.4568824 25.0370595 6.70602364 18.9185438 6.70602364 25.0370595 5.29044597 25.0370595 5.29044597 16.6506963 6.70602364 16.6506963 11.5769238 22.9134534"></polygon>
                    <polygon id="Fill-3" points="19.687072 17.9466639 19.687072 25.0370116 18.2714944 25.0370116 18.2714944 17.9466639 15.7278633 17.9466639 15.7278633 16.6506484 22.2307032 16.6506484 22.2307032 17.9466639"></polygon>
                    <polygon id="Fill-4" points="30.8564543 16.6506963 30.8564543 17.9824128 26.3813791 17.9824128 26.3813791 20.2020999 30.4004888 20.2020999 30.4004888 21.4619352 26.3813791 21.4619352 26.3813791 23.7051035 31.0002163 23.7051035 31.0002163 25.0370595 24.9655618 25.0370595 24.9655618 16.6506963"></polygon>
                    <path d="M38.8220736,20.5617447 C39.1100771,20.3139947 39.2538392,19.9162528 39.2538392,19.3682796 C39.2538392,18.8205459 39.1060039,18.4443683 38.8100935,18.2407053 C38.5139434,18.0365632 37.986097,17.9347316 37.2265537,17.9347316 L35.426652,17.9347316 L35.426652,20.9340886 L37.1903735,20.9340886 C37.9901702,20.9340886 38.5340702,20.8102136 38.8220736,20.5617447 M40.705597,19.3745093 C40.705597,20.7582196 40.1015565,21.6296577 38.8939547,21.9895422 L41.0894419,25.0368199 L39.2900194,25.0368199 L37.2864546,22.2176447 L35.426652,22.2176447 L35.426652,25.0368199 L34.0110744,25.0368199 L34.0110744,16.6506963 L37.1304727,16.6506963 C38.4099555,16.6506963 39.3259599,16.8668187 39.8777668,17.2990635 C40.4295738,17.7305894 40.705597,18.4223249 40.705597,19.3745093" id="Fill-5"></path>
                    <path d="M48.7558444,21.8219395 L47.2322055,18.366617 L45.7085667,21.8219395 L48.7558444,21.8219395 Z M45.1327994,23.129456 L44.292989,25.0369397 L42.7810907,25.0369397 L46.476496,16.6508162 L47.987915,16.6508162 L51.6830807,25.0369397 L50.171422,25.0369397 L49.3316117,23.129456 L45.1327994,23.129456 Z" id="Fill-7"></path>
                    <path d="M57.8735734,23.7532638 C58.3611665,23.7532638 58.7811916,23.671559 59.1331691,23.5074305 C59.4849072,23.3435418 59.8529382,23.0814155 60.236783,22.721531 L61.1484744,23.6574224 C60.260983,24.6412345 59.1827671,25.1331405 57.9152644,25.1331405 C56.6477617,25.1331405 55.5959022,24.7250957 54.7604046,23.9094853 C53.9241884,23.0933957 53.5063199,22.0619025 53.5063199,20.8140472 C53.5063199,19.566192 53.9323349,18.5265524 54.7841254,17.6948885 C55.6359159,16.862985 56.7117359,16.447273 58.0113454,16.447273 C59.310955,16.447273 60.3968382,16.9267196 61.2685158,17.8865714 L60.3690441,18.8703835 C59.9686667,18.4862989 59.5908119,18.2186618 59.2352403,18.0667532 C58.8789498,17.9148446 58.4613208,17.8386506 57.9813949,17.8386506 C57.1336776,17.8386506 56.4218156,18.1129967 55.8460483,18.6602511 C55.2700414,19.2082244 54.982038,19.9081063 54.982038,20.7598968 C54.982038,21.6116875 55.2678849,22.3235495 55.8398186,22.8954832 C56.4117522,23.4674167 57.0893511,23.7532638 57.8735734,23.7532638" id="Fill-9"></path>
                    <polygon id="Fill-11" points="67.2431976 17.9466639 67.2431976 25.0370116 65.8276199 25.0370116 65.8276199 17.9466639 63.2839889 17.9466639 63.2839889 16.6506484 69.7868287 16.6506484 69.7868287 17.9466639"></polygon>
                    <polygon id="Fill-13" points="72.5217592 25.0370595 73.9373368 25.0370595 73.9373368 16.6506963 72.5217592 16.6506963"></polygon>
                    <polygon id="Fill-15" points="81.2918474 25.0369397 79.7083078 25.0369397 76.337086 16.6505765 77.9206258 16.6505765 80.4999578 22.9133336 83.0792898 16.6505765 84.6630692 16.6505765"></polygon>
                    <polygon id="Fill-16" points="92.9531117 16.6506963 92.9531117 17.9824128 88.4780366 17.9824128 88.4780366 20.2020999 92.4971462 20.2020999 92.4971462 21.4619352 88.4780366 21.4619352 88.4780366 23.7051035 93.0968738 23.7051035 93.0968738 25.0370595 87.0622193 25.0370595 87.0622193 16.6506963"></polygon>
                    <path d="M8.00203913,6.98384393 L6.54716649,3.36247615 L5.09229385,6.98384393 L8.00203913,6.98384393 Z M8.93984735,9.34393871 L4.15448562,9.34393871 L3.26555653,11.5427803 L-1.56843791e-15,11.5427803 L4.99549402,0.226305536 L8.14771808,0.226305536 L13.1592655,11.5427803 L9.82925566,11.5427803 L8.93984735,9.34393871 Z" id="Fill-19"></path>
                    <polygon id="Fill-20" points="25.6881102 11.5427084 25.6557637 5.54519244 22.7460185 10.427354 21.3234923 10.427354 18.4293213 5.70668523 18.4293213 11.5427084 15.4711761 11.5427084 15.4711761 0.226233655 18.1063357 0.226233655 22.0830355 6.75758632 25.9631751 0.226233655 28.5983347 0.226233655 28.6304416 11.5427084"></polygon>
                    <path d="M33.6014242,10.3949596 C32.6693664,9.4789553 32.2030979,8.18006456 32.2030979,6.49876658 L32.2030979,0.226425337 L35.4039615,0.226425337 L35.4039615,6.40172715 C35.4039615,8.21241104 36.1208553,9.11787278 37.5541636,9.11787278 C38.9769294,9.11787278 39.6880727,8.21241104 39.6880727,6.40172715 L39.6880727,0.226425337 L42.8405364,0.226425337 L42.8405364,6.49876658 C42.8405364,8.18006456 42.3742679,9.4789553 41.4422102,10.3949596 C40.5096731,11.3112035 39.2031152,11.7690858 37.5215776,11.7690858 C35.8405192,11.7690858 34.5334819,11.3112035 33.6014242,10.3949596" id="Fill-21"></path>
                    <path d="M47.7223624,11.4295676 C46.8600293,11.2033819 46.1594286,10.9014814 45.6207999,10.5243455 L46.6717009,8.16401112 C47.1779832,8.49825804 47.7652515,8.76757241 48.4337454,8.97243344 C49.10176,9.17705485 49.7592321,9.27960517 50.4059219,9.27960517 C51.6343693,9.27960517 52.2487128,8.97243344 52.2487128,8.35785038 C52.2487128,8.03462521 52.0738022,7.79502168 51.7235018,7.63856058 C51.3732015,7.48233907 50.8101331,7.31797105 50.0342969,7.14545651 C49.1825064,6.96215981 48.4713631,6.76568491 47.9001482,6.55555262 C47.3286939,6.34542032 46.8387046,6.00853776 46.4292222,5.54514453 C46.0195002,5.08175129 45.8148787,4.45662569 45.8148787,3.66976768 C45.8148787,2.98018872 46.0032071,2.35769874 46.3803431,1.80253737 C46.757479,1.24761559 47.3205473,0.808422314 48.0700272,0.484957547 C48.8190278,0.16149278 49.7374281,0 50.8261866,0 C51.569916,0 52.3028632,0.0836216324 53.0247886,0.250625294 C53.746714,0.417868559 54.3828615,0.662743367 54.9325119,0.986208135 L53.9465434,3.36259596 C52.8688067,2.78059898 51.8231769,2.48948069 50.8101331,2.48948069 C50.1739858,2.48948069 49.7108321,2.58412409 49.4197139,2.77245246 C49.1288352,2.96126005 48.9831562,3.20637445 48.9831562,3.5080353 C48.9831562,3.80993575 49.1554312,4.03636109 49.5006998,4.18707171 C49.8454893,4.33802193 50.4006508,4.49424344 51.1657048,4.65597582 C52.0277983,4.83927252 52.7420565,5.03574742 53.3079999,5.24611931 C53.8737039,5.45625161 54.3639327,5.79025894 54.778926,6.24838089 C55.1936798,6.70650284 55.401416,7.32899281 55.401416,8.1153716 C55.401416,8.79440801 55.2126084,9.40875147 54.8354725,9.95840196 C54.4583365,10.5080525 53.892393,10.9472458 53.138121,11.2759818 C52.3836095,11.6047178 51.4673657,11.7690858 50.3896289,11.7690858 C49.4736247,11.7690858 48.5844559,11.6557534 47.7223624,11.4295676" id="Fill-22"></path>
                    <polygon id="Fill-23" points="69.0454954 0.226329495 69.0454954 11.5428042 66.4103357 11.5428042 61.4148417 5.51270221 61.4148417 11.5428042 58.2789107 11.5428042 58.2789107 0.226329495 60.9138307 0.226329495 65.9090851 6.25643157 65.9090851 0.226329495"></polygon>
                    <polygon id="Fill-24" points="81.800981 9.06935306 81.800981 11.5427803 72.7154547 11.5427803 72.7154547 0.226305536 81.5908487 0.226305536 81.5908487 2.69973279 75.8839718 2.69973279 75.8839718 4.6072165 80.9115727 4.6072165 80.9115727 6.99989737 75.8839718 6.99989737 75.8839718 9.06935306"></polygon>
                    <polygon id="Fill-25" points="87.3942618 2.76440178 83.9183335 2.76440178 83.9183335 0.226281575 94.0545212 0.226281575 94.0545212 2.76440178 90.5948858 2.76440178 90.5948858 11.5427563 87.3942618 11.5427563"></polygon>
                </g>
            </g>
        </g>
    </g>
</svg>